<svg width="145" height="46" viewBox="0 0 145 46" fill="none" xmlns="http://www.w3.org/2000/svg">
<g clip-path="url(#clip0)">
<g style="mix-blend-mode:multiply">
<path d="M9.828 28.342C8.204 29.49 7.392 31.198 7.392 33.466C7.392 34.894 7.896 36.238 8.904 37.498C9.94 38.758 11.676 39.388 14.112 39.388C16.548 39.388 18.858 38.562 21.042 36.91C23.226 35.258 24.878 33.452 25.998 31.492L27.426 34.054C23.814 40.186 18.788 43.252 12.348 43.252C9.156 43.252 6.454 42.398 4.242 40.69C2.03 38.954 0.924 36.924 0.924 34.6C0.924 30.54 2.73 27.6 6.342 25.78C5.138 24.296 4.536 22.56 4.536 20.572C4.536 17.968 5.656 15.728 7.896 13.852C10.164 11.976 12.782 11.038 15.75 11.038C18.718 11.038 21 11.794 22.596 13.306C24.22 14.818 25.032 16.806 25.032 19.27H21.042C21.07 17.758 20.664 16.624 19.824 15.868C19.012 15.084 17.864 14.692 16.38 14.692C14.924 14.692 13.608 15.224 12.432 16.288C11.116 17.436 10.458 18.78 10.458 20.32C10.458 21.86 10.878 23.19 11.718 24.31C14.518 23.974 16.646 24.156 18.102 24.856C18.998 25.276 19.446 25.948 19.446 26.872C19.446 27.768 18.928 28.398 17.892 28.762C16.884 29.126 15.666 29.308 14.238 29.308C12.81 29.308 11.34 28.986 9.828 28.342ZM37.6507 12.718C37.8467 12.242 38.2807 11.85 38.9527 11.542C39.6527 11.206 40.4787 11.038 41.4307 11.038C42.4107 11.038 43.1387 11.178 43.6147 11.458C43.3347 13.642 42.8867 17.072 42.2707 21.748C40.9827 31.52 40.3387 36.91 40.3387 37.918C40.3387 38.898 40.7587 39.388 41.5987 39.388C42.3267 39.388 43.0827 38.94 43.8667 38.044C44.6507 37.12 45.3647 35.622 46.0087 33.55C46.7927 34.306 47.3387 35.132 47.6467 36.028C46.6387 39.36 45.0567 41.516 42.9007 42.496C41.9207 42.972 40.9967 43.21 40.1287 43.21C37.6367 43.21 35.9707 42.314 35.1307 40.522C33.6747 42.342 31.8127 43.252 29.5447 43.252C27.2767 43.252 25.3587 42.482 23.7907 40.942C22.2507 39.402 21.4807 37.372 21.4807 34.852C21.4807 31.184 22.5587 28.258 24.7147 26.074C26.8707 23.89 29.6007 22.798 32.9047 22.798C32.9887 22.798 33.0727 22.798 33.1567 22.798C34.3047 22.798 35.3827 22.966 36.3907 23.302L37.6507 12.718ZM33.5347 26.074C31.7427 26.074 30.3147 26.76 29.2507 28.132C28.2147 29.476 27.5987 31.492 27.4027 34.18C27.3747 34.432 27.3607 34.67 27.3607 34.894C27.3607 36.266 27.6827 37.358 28.3267 38.17C28.9987 38.982 29.8527 39.388 30.8887 39.388C32.6527 39.388 33.9827 38.142 34.8787 35.65L35.9707 26.62C35.0467 26.256 34.2347 26.074 33.5347 26.074ZM61.5845 36.322C61.5845 38.338 62.4385 39.346 64.1465 39.346C64.2025 39.346 64.2445 39.346 64.2725 39.346C65.0565 39.346 65.7565 38.926 66.3725 38.086C66.9885 37.246 67.4505 36.196 67.7585 34.936C68.4305 32.36 68.7665 30.022 68.7665 27.922H68.3885C67.2125 27.922 66.3025 27.656 65.6585 27.124C64.9865 26.508 64.6505 25.766 64.6505 24.898C64.6505 24.03 64.9165 23.33 65.4485 22.798C66.0925 22.21 66.8905 21.916 67.8425 21.916C69.9145 21.916 71.3145 22.98 72.0425 25.108C74.0025 24.632 76.0745 23.974 78.2585 23.134V25.528C76.1865 26.312 74.2545 26.914 72.4625 27.334C72.4905 27.558 72.5045 27.88 72.5045 28.3C72.3925 34.096 71.0345 38.296 68.4305 40.9C66.8905 42.44 64.8885 43.21 62.4245 43.21C59.9885 43.21 58.1685 42.174 56.9645 40.102C55.5925 42.202 53.4925 43.252 50.6645 43.252C48.9845 43.252 47.5985 42.664 46.5065 41.488C45.4425 40.284 44.9105 38.87 44.9105 37.246C44.9105 36.966 44.9245 36.63 44.9525 36.238C45.5405 31.366 46.0305 27.054 46.4225 23.302C47.4305 22.966 48.3125 22.798 49.0685 22.798C51.0565 22.798 52.0505 23.484 52.0505 24.856C52.0505 25.388 51.8405 27.222 51.4205 30.358C50.8885 34.306 50.6225 36.532 50.6225 37.036C50.6225 37.512 50.8045 37.988 51.1685 38.464C51.5605 38.94 52.1065 39.178 52.8065 39.178C53.5345 39.178 54.1785 38.856 54.7385 38.212C55.2985 37.568 55.7045 36.784 55.9565 35.86L57.4265 23.302C58.3225 22.966 59.2745 22.798 60.2825 22.798C62.1025 22.798 63.0125 23.484 63.0125 24.856C63.0125 25.36 62.8165 26.998 62.4245 29.77C61.8645 33.69 61.5845 35.874 61.5845 36.322ZM67.0445 24.898C67.0445 25.374 67.4505 25.612 68.2625 25.612C68.3465 25.612 68.4305 25.612 68.5145 25.612C68.3185 24.856 68.0245 24.478 67.6325 24.478C67.2405 24.478 67.0445 24.618 67.0445 24.898ZM93.494 43.21C90.918 43.21 89.21 42.314 88.37 40.522C86.914 42.342 85.038 43.252 82.742 43.252C80.474 43.252 78.556 42.482 76.988 40.942C75.448 39.402 74.678 37.372 74.678 34.852C74.678 31.184 75.756 28.258 77.912 26.074C80.068 23.89 82.798 22.798 86.102 22.798C86.186 22.798 86.27 22.798 86.354 22.798C87.754 22.798 89.042 23.036 90.218 23.512C90.974 23.036 91.884 22.798 92.948 22.798C94.04 22.798 94.824 22.938 95.3 23.218C95.048 25.29 94.782 27.334 94.502 29.35C94.222 31.338 94.026 32.752 93.914 33.592C93.662 35.496 93.536 36.868 93.536 37.708C93.536 38.828 93.984 39.388 94.88 39.388C95.58 39.388 96.322 38.926 97.106 38.002C97.89 37.05 98.576 35.566 99.164 33.55C99.976 34.278 100.536 35.09 100.844 35.986C100.032 38.646 98.94 40.522 97.568 41.614C96.196 42.678 94.838 43.21 93.494 43.21ZM86.732 26.074C84.94 26.074 83.512 26.76 82.448 28.132C81.412 29.476 80.796 31.492 80.6 34.18C80.572 34.432 80.558 34.67 80.558 34.894C80.558 36.266 80.88 37.358 81.524 38.17C82.196 38.982 83.05 39.388 84.086 39.388C85.85 39.388 87.18 38.142 88.076 35.65L89.084 26.578C88.272 26.242 87.488 26.074 86.732 26.074ZM110.204 28.3C110.204 27.068 109.63 26.452 108.482 26.452C107.362 26.452 106.466 27.18 105.794 28.636C108.818 31.016 110.33 33.69 110.33 36.658C110.33 38.814 109.728 40.452 108.524 41.572C107.32 42.692 105.808 43.252 103.988 43.252C102.168 43.252 100.838 42.692 99.9977 41.572C99.1577 40.424 98.7377 38.982 98.7377 37.246C98.7377 36.714 98.7517 36.322 98.7797 36.07L100.25 23.26C101.258 22.952 102.28 22.798 103.316 22.798C105.024 22.798 105.878 23.428 105.878 24.688V24.772C106.998 23.456 108.426 22.798 110.162 22.798C111.422 22.798 112.402 23.092 113.102 23.68C113.802 24.24 114.152 24.996 114.152 25.948C114.152 26.9 113.788 27.684 113.06 28.3C112.36 28.888 111.436 29.182 110.288 29.182C110.232 29.182 110.176 29.182 110.12 29.182C110.176 28.874 110.204 28.58 110.204 28.3ZM107.6 36.448C107.6 34.824 106.76 33.2 105.08 31.576C104.576 35.608 104.324 37.638 104.324 37.666C104.324 38.842 104.8 39.43 105.752 39.43C106.984 39.43 107.6 38.436 107.6 36.448ZM131.166 12.718C131.362 12.242 131.796 11.85 132.468 11.542C133.168 11.206 133.994 11.038 134.946 11.038C135.926 11.038 136.654 11.178 137.13 11.458C136.85 13.642 136.402 17.072 135.786 21.748C134.498 31.52 133.854 36.91 133.854 37.918C133.854 38.898 134.274 39.388 135.114 39.388C135.842 39.388 136.598 38.94 137.382 38.044C138.166 37.12 138.88 35.622 139.524 33.55C140.308 34.306 140.854 35.132 141.162 36.028C140.154 39.36 138.572 41.516 136.416 42.496C135.436 42.972 134.512 43.21 133.644 43.21C131.152 43.21 129.486 42.314 128.646 40.522C127.19 42.342 125.328 43.252 123.06 43.252C120.792 43.252 118.874 42.482 117.306 40.942C115.766 39.402 114.996 37.372 114.996 34.852C114.996 31.184 116.074 28.258 118.23 26.074C120.386 23.89 123.116 22.798 126.42 22.798C126.504 22.798 126.588 22.798 126.672 22.798C127.82 22.798 128.898 22.966 129.906 23.302L131.166 12.718ZM127.05 26.074C125.258 26.074 123.83 26.76 122.766 28.132C121.73 29.476 121.114 31.492 120.918 34.18C120.89 34.432 120.876 34.67 120.876 34.894C120.876 36.266 121.198 37.358 121.842 38.17C122.514 38.982 123.368 39.388 124.404 39.388C126.168 39.388 127.498 38.142 128.394 35.65L129.486 26.62C128.562 26.256 127.75 26.074 127.05 26.074Z" fill="url(#paint0_linear)"/>
</g>
</g>
<defs>
<linearGradient id="paint0_linear" x1="140.5" y1="12.5" x2="0.0115182" y2="13.6044" gradientUnits="userSpaceOnUse">
<stop stop-color="#FFA5AA"/>
<stop offset="1" stop-color="#9C38C0"/>
</linearGradient>
<clipPath id="clip0">
<rect width="145" height="46" fill="white"/>
</clipPath>
</defs>
</svg>
